<svg width="378" height="632" viewBox="0 0 378 632" fill="none" xmlns="http://www.w3.org/2000/svg" class="w-auto h-full "><path d="M150.141 37.7742C143.862 33.2544 137.272 28.6046 129.672 27.4579C122.072 26.3113 113.188 29.8745 110.811 37.3276C109.696 40.8208 110.017 44.9373 107.732 47.7805C106.326 49.5305 104.172 50.4471 102.057 51.1338C92.1364 54.357 81.2545 53.8903 71.5756 57.8069C61.8967 61.72 53.5089 73.023 58.0787 82.5626C61.2102 89.0957 69.1436 91.8323 76.2696 91.539C83.3956 91.2457 90.2143 88.6324 97.2423 87.3858C104.267 86.1358 112.194 86.5125 117.558 91.3023C120.006 93.4922 121.722 96.4321 124.181 98.6121C129.048 102.925 136.311 103.592 142.456 101.605C148.602 99.6154 153.786 95.3288 158.271 90.6024C160.546 88.2024 162.733 85.6292 165.56 83.9493C172.085 80.0761 180.26 81.8093 187.788 81.1927C194.676 80.626 201.38 77.9261 206.79 73.5396C211.755 69.5164 215.808 63.33 214.792 56.9469C213.52 48.9638 204.914 44.2607 197.003 43.6974C189.093 43.134 181.234 45.424 173.304 45.454C164.975 45.484 157.091 42.4674 150.145 37.7776L150.141 37.7742Z" fill="white"></path><path d="M201.098 488.126C204.541 485.181 207.601 481.381 209.064 476.508C210.526 471.632 210.16 465.557 207.357 461.08C204.231 456.091 198.745 454.027 193.883 454.374C189.018 454.726 184.59 457.089 180.215 459.304C163.531 467.765 146.183 474.602 128.378 479.731C122.34 481.474 116.19 483.026 109.907 483.423C109.295 483.318 108.681 483.209 108.067 483.085C103.241 482.125 98.4446 480.537 93.7864 478.388C88.9773 476.167 84.4338 473.263 79.9723 470.014C75.3188 466.63 70.6969 463.16 65.68 460.785C60.785 458.469 55.6487 457.096 50.5518 456.72C49.3695 456.629 49.4076 458.86 50.5853 458.946C56.285 459.37 61.9868 461.072 67.3807 463.97C72.2932 466.611 76.8215 470.298 81.4884 473.581C85.985 476.743 90.6704 479.414 95.5139 481.45C99.3444 483.059 103.243 484.281 107.169 485.116L114.641 489.653C134.024 498.245 154.625 501.382 174.251 498.738C183.858 497.441 193.452 494.66 201.098 488.126Z" fill="#00AF54"></path><path d="M49.398 192.586C47.3001 192.757 44.9489 193.332 43.9118 195.166C42.6949 197.315 43.903 199.956 44.1328 202.415C44.6602 208.034 39.7191 212.895 34.3626 214.664C29.006 216.433 23.2134 216.005 17.5859 216.409C11.9583 216.813 5.91228 218.367 2.50626 222.868C-2.02234 228.85 0.346557 238.292 6.4279 242.682C12.5092 247.072 21.0537 246.912 27.8599 243.761C34.666 240.61 39.9636 234.893 44.286 228.761C47.8364 223.726 51.6991 217.765 57.8217 217.075C62.256 216.577 66.3839 219.101 70.3144 221.214C78.906 225.831 89.0062 228.891 98.3993 226.273C107.792 223.655 115.533 213.709 112.943 204.302C111.139 197.748 104.472 192.975 97.6804 193.099C92.0351 193.202 86.9172 196.581 81.3073 197.22C68.6997 198.656 60.8682 191.652 49.398 192.586Z" fill="white"></path><circle cx="152.1" cy="366.5" r="3" fill="#FFC806"></circle><circle cx="256.207" cy="108.701" r="3" fill="#FFC806"></circle><circle cx="256.207" cy="598.673" r="3" fill="#FFC806"></circle><circle cx="374.217" cy="3.93945" r="3" fill="#FFC806"></circle><path d="M214.655 138.736C214.286 138.681 213.931 138.553 213.608 138.364C212.168 137.524 211.467 135.781 211.041 134.23C210.524 132.35 210.37 130.394 210.074 128.472C209.801 126.698 209.358 124.975 208.622 123.342C207.936 121.816 207.052 120.385 206.038 119.065C203.975 116.377 201.419 114.113 198.734 112.095C198.727 112.09 198.721 112.085 198.715 112.08C197.626 111.263 196.337 110.763 194.99 110.638C188.117 110 181.419 105.541 175.945 101.233C174.044 99.7374 172.295 98.0233 170.235 96.7678C165.489 93.8779 159.672 93.7279 154.357 92.1869C152.467 91.6389 150.468 90.7698 149.564 88.9884C148.738 87.3598 149.074 85.289 150.095 83.7816C151.117 82.2742 152.725 81.2705 154.408 80.6341C160.18 78.4547 166.811 80.3188 171.877 83.8874C176.944 87.455 180.766 92.5339 184.568 97.4763C187.74 101.602 191.034 105.759 195.088 108.93C196.742 110.058 198.386 111.202 199.962 112.441C202.591 114.509 205.065 116.832 207.011 119.594C207.959 120.938 208.765 122.383 209.375 123.92C210.051 125.618 210.403 127.394 210.652 129.203C210.917 131.126 211.115 133.081 211.747 134.923C212.242 136.367 213.151 138.029 214.78 138.273C215.078 138.318 214.951 138.781 214.655 138.736Z" fill="#00AF54"></path><circle cx="46.4375" cy="628.08" r="3" fill="#FFC806"></circle></svg>