<svg width="100" height="42" viewBox="0 0 100 42" fill="none" xmlns="http://www.w3.org/2000/svg">
<path d="M37.057 12.6624V25.5115H42.3537V12.6691C42.3537 5.95735 37.2038 0.691749 30.5002 0.629644C28.7408 0.628479 27.003 1.02168 25.4116 1.78101C23.8202 2.54033 22.4147 3.64694 21.296 5.02134C20.1764 3.64643 18.7697 2.53955 17.1772 1.78022C15.5847 1.02089 13.8457 0.62796 12.0853 0.629644C5.38168 0.698403 0.231755 5.95291 0.231755 12.6691V25.5115H5.52851V12.6624C5.51258 11.7809 5.67038 10.905 5.99268 10.0858C6.31499 9.26667 6.79534 8.52075 7.40568 7.89162C8.01601 7.26248 8.74409 6.76275 9.54739 6.42162C10.3507 6.08049 11.2131 5.90479 12.0842 5.90479C12.9554 5.90479 13.8178 6.08049 14.6211 6.42162C15.4244 6.76275 16.1525 7.26248 16.7628 7.89162C17.3731 8.52075 17.8535 9.26667 18.1758 10.0858C18.4981 10.905 18.6559 11.7809 18.64 12.6624V25.5115H23.9411V12.6624C23.9411 10.9024 24.6319 9.2144 25.8616 7.96984C27.0912 6.72529 28.759 6.02611 30.498 6.02611C32.2369 6.02611 33.9047 6.72529 35.1343 7.96984C36.364 9.2144 37.0548 10.9024 37.0548 12.6624H37.057ZM99.9912 9.79454V0.93795H94.6945V9.79454V13.8203C94.691 15.5797 93.9971 17.2657 92.7654 18.5074C91.5337 19.749 89.8651 20.4446 88.1267 20.4411C86.3883 20.4375 84.7225 19.7352 83.4957 18.4886C82.2689 17.2419 81.5817 15.5531 81.5852 13.7936V0.929078H76.2841V13.787C76.2841 20.4987 81.434 25.7643 88.1376 25.8264C90.4649 25.8174 92.7403 25.1305 94.6923 23.848V27.3813C94.6923 31.458 91.9048 34.306 87.9141 34.306H76.6719V39.4074H87.9799C94.7208 39.4074 100 34.0975 100 27.3192V9.79675L99.9912 9.79454ZM58.4697 25.6934C61.0847 25.6925 63.6225 24.7967 65.6708 23.1515V25.5448H70.9632V0.873627H65.6708V3.29128C63.6231 1.64449 61.0852 0.747102 58.4697 0.744982C51.8953 0.744982 46.5591 6.33219 46.5591 13.2236C46.5591 20.115 51.891 25.6934 58.4697 25.6934ZM58.8335 6.28783C60.1904 6.2742 61.5208 6.66903 62.6555 7.42218C63.7903 8.17533 64.6784 9.25282 65.2069 10.5178C65.7355 11.7828 65.8806 13.1783 65.624 14.5269C65.3674 15.8756 64.7206 17.1167 63.7657 18.0925C62.8108 19.0684 61.5909 19.735 60.2609 20.0077C58.9309 20.2805 57.5508 20.147 56.2959 19.6243C55.0411 19.1016 53.968 18.2132 53.2129 17.072C52.4579 15.9308 52.055 14.5882 52.0553 13.2147C52.0483 11.3878 52.7584 9.63278 54.0294 8.33552C55.3005 7.03826 57.0284 6.30492 58.8335 6.29671V6.28783ZM2.64455 38.2918C1.95205 38.2918 1.35816 37.7772 1.35816 36.8567C1.35816 35.9362 1.94109 35.4305 2.6314 35.4305C2.88637 35.4203 3.13689 35.5004 3.33972 35.6571C3.54256 35.8138 3.685 36.0373 3.74247 36.2889L4.95873 35.8741C4.73958 35.0157 3.96819 34.1596 2.60072 34.1596C2.25277 34.1558 1.90766 34.2234 1.58628 34.3584C1.2649 34.4935 0.973932 34.6931 0.730969 34.9452C0.488006 35.1974 0.298102 35.4968 0.172745 35.8253C0.0473875 36.1539 -0.0108169 36.5047 0.00165246 36.8567C-0.00726882 37.2115 0.0548293 37.5644 0.184209 37.8943C0.313588 38.2241 0.507574 38.5241 0.754488 38.776C1.0014 39.028 1.29614 39.2268 1.62096 39.3605C1.94578 39.4942 2.29396 39.5599 2.64455 39.5538C3.17005 39.5778 3.68813 39.4213 4.11462 39.1096C4.54111 38.798 4.85095 38.3495 4.99379 37.8371L3.79945 37.4356C3.73082 37.6894 3.5793 37.9121 3.36958 38.0676C3.15986 38.2231 2.90431 38.3021 2.64455 38.2918ZM7.94349 34.1596C6.65711 34.1596 5.47372 35.2131 5.47372 36.8345C5.47372 38.5513 6.68779 39.5538 8.06621 39.5538C9.3 39.5538 10.0977 38.8197 10.3519 37.9413L9.21892 37.5997C9.14263 37.8407 8.98812 38.0485 8.78047 38.1894C8.57281 38.3304 8.3242 38.3961 8.07498 38.376C7.75818 38.3878 7.44925 38.2745 7.21335 38.0602C6.97746 37.8458 6.83302 37.5472 6.81051 37.2271H10.4023C10.4023 37.2071 10.4242 37.0053 10.4242 36.8035C10.4242 35.1621 9.49504 34.1596 7.94349 34.1596ZM6.84776 36.2778C6.87432 35.9978 7.00499 35.7385 7.2133 35.5524C7.42162 35.3663 7.69202 35.2672 7.96979 35.2752C8.74556 35.2752 9.06552 35.7721 9.09401 36.2778H6.84776ZM17.3405 34.9026C17.198 34.6143 16.7488 34.1906 15.87 34.1906C14.4105 34.1906 13.4594 35.3573 13.4594 36.8523C13.4594 38.3827 14.4806 39.5294 15.9094 39.5294C16.5669 39.5294 17.0731 39.281 17.3076 38.8995V41.3682H18.629V34.3148H17.3339L17.3405 34.9026ZM16.0694 38.2918C15.3747 38.2918 14.8225 37.755 14.8225 36.8456C14.8225 35.9362 15.3747 35.4194 16.0694 35.4194C16.7641 35.4194 17.3142 35.9362 17.3142 36.8456C17.3142 37.755 16.7619 38.2918 16.0694 38.2918ZM24.4802 34.3148H23.1215V37.2692C23.1215 37.8592 22.7753 38.2718 22.1726 38.2718C21.57 38.2718 21.2588 37.8171 21.2588 37.2493V34.3148H19.9001V37.5288C19.9001 38.6378 20.5948 39.525 21.8088 39.525C22.3392 39.525 22.9221 39.3165 23.1982 38.8418C23.1976 39.0252 23.2108 39.2083 23.2377 39.3897H24.535C24.502 39.084 24.4851 38.7767 24.4846 38.4692L24.4802 34.3148ZM26.5183 31.7929C26.2963 31.7929 26.0833 31.8822 25.9263 32.0411C25.7693 32.2 25.6811 32.4155 25.6811 32.6402C25.6811 32.8649 25.7693 33.0804 25.9263 33.2393C26.0833 33.3982 26.2963 33.4875 26.5183 33.4875C26.7403 33.4875 26.9532 33.3982 27.1102 33.2393C27.2672 33.0804 27.3554 32.8649 27.3554 32.6402C27.3554 32.4155 27.2672 32.2 27.1102 32.0411C26.9532 31.8822 26.7403 31.7929 26.5183 31.7929ZM25.8433 39.3986H27.202V34.3148H25.8433V39.3986ZM36.8378 34.1684C36.5214 34.1507 36.2062 34.2202 35.9256 34.3694C35.6451 34.5186 35.4098 34.742 35.2447 35.0157C34.9904 34.4701 34.4382 34.1684 33.7545 34.1684C33.2044 34.1684 32.5601 34.4368 32.284 34.9337V34.3148H30.9888V39.3986H32.3454V36.422C32.3355 36.2921 32.3527 36.1616 32.3958 36.0388C32.4389 35.9161 32.5069 35.8039 32.5955 35.7094C32.6841 35.6149 32.7913 35.5403 32.9101 35.4904C33.029 35.4404 33.1568 35.4162 33.2855 35.4194C33.8969 35.4194 34.173 35.832 34.173 36.3798V39.3986H35.5208V36.422C35.5114 36.2931 35.5285 36.1637 35.571 36.0419C35.6136 35.9201 35.6807 35.8085 35.768 35.7143C35.8553 35.6201 35.961 35.5452 36.0784 35.4944C36.1958 35.4437 36.3223 35.4181 36.45 35.4194C37.0723 35.4194 37.3375 35.832 37.3375 36.3798V39.3986H38.6524V36.1026C38.648 34.7385 37.7604 34.1684 36.8313 34.1684H36.8378ZM42.0338 34.1684C40.7474 34.1684 39.5618 35.222 39.5618 36.8434C39.5618 38.5601 40.7781 39.5627 42.1543 39.5627C43.3903 39.5627 44.1858 38.8285 44.4422 37.9502L43.3092 37.6086C43.2326 37.8494 43.078 38.0569 42.8704 38.1978C42.6629 38.3387 42.4144 38.4046 42.1653 38.3849C41.8459 38.3983 41.5341 38.2847 41.2965 38.0683C41.059 37.8519 40.9146 37.5499 40.8942 37.2271H44.4882C44.4882 37.2071 44.5079 37.0053 44.5079 36.8035C44.5057 35.1621 43.5788 34.1596 42.0272 34.1596L42.0338 34.1684ZM40.9381 36.2867C40.9646 36.0067 41.0953 35.7474 41.3036 35.5613C41.5119 35.3752 41.7823 35.2761 42.0601 35.2841C42.8359 35.2841 43.1558 35.781 43.1821 36.2867H40.9381ZM50.7887 34.2084C50.0326 34.2084 49.4738 34.5499 49.2546 34.9425V34.3237H47.9398V41.3704H49.2985V38.9017C49.5439 39.2433 50.0545 39.5228 50.747 39.5228C52.1671 39.5228 53.116 38.3849 53.116 36.8456C53.116 35.3063 52.2438 34.1995 50.7755 34.1995L50.7887 34.2084ZM50.5213 38.3006C49.8288 38.3006 49.2678 37.7639 49.2678 36.8656C49.2678 35.9673 49.8288 35.4394 50.5213 35.4394C51.2138 35.4394 51.7682 35.965 51.7682 36.8656C51.7682 37.7661 51.2028 38.2918 50.5081 38.2918L50.5213 38.3006ZM54.0846 39.4096H55.4433V31.9171H54.0846V39.4096ZM60.9044 36.1026C60.9044 35.0801 60.3105 34.1707 58.713 34.1707C57.3652 34.1707 56.6398 35.0579 56.5588 35.8431L57.7641 36.1026C57.7732 35.9844 57.8053 35.8692 57.8585 35.7636C57.9117 35.6579 57.985 35.564 58.0742 35.4871C58.1634 35.4103 58.2667 35.352 58.3782 35.3156C58.4897 35.2793 58.6072 35.2655 58.7239 35.2752C59.2937 35.2752 59.5698 35.5747 59.5698 35.9407C59.5698 36.1181 59.4778 36.2623 59.1929 36.3044L57.9569 36.4885C57.1198 36.6127 56.4558 37.1206 56.4558 38.0411C56.4558 38.8352 57.1132 39.5693 58.1826 39.5693C58.4726 39.5843 58.7615 39.5226 59.0208 39.3904C59.2802 39.2582 59.5011 39.06 59.6619 38.8152C59.6608 39.0196 59.6776 39.2238 59.7123 39.4252H60.9592C60.9199 39.1586 60.8994 38.8895 60.8978 38.62L60.9044 36.1026ZM59.5764 37.3535C59.5764 38.2407 59.0461 38.5313 58.4807 38.5313C58.3983 38.541 58.3148 38.533 58.2357 38.5078C58.1566 38.4826 58.0837 38.4408 58.0216 38.3851C57.9596 38.3294 57.9098 38.2611 57.8756 38.1846C57.8415 38.1082 57.8236 38.0252 57.8232 37.9413C57.8232 37.5487 58.0994 37.3535 58.4456 37.3003L59.5786 37.1251L59.5764 37.3535ZM62.8526 31.8085C62.7427 31.8085 62.6338 31.8304 62.5323 31.873C62.4307 31.9155 62.3384 31.978 62.2607 32.0566C62.1829 32.1353 62.1213 32.2287 62.0792 32.3315C62.0371 32.4343 62.0155 32.5445 62.0155 32.6558C62.0155 32.767 62.0371 32.8772 62.0792 32.98C62.1213 33.0828 62.1829 33.1762 62.2607 33.2549C62.3384 33.3336 62.4307 33.396 62.5323 33.4385C62.6338 33.4811 62.7427 33.503 62.8526 33.503C62.9626 33.503 63.0714 33.4811 63.173 33.4385C63.2745 33.396 63.3668 33.3336 63.4446 33.2549C63.5223 33.1762 63.584 33.0828 63.626 32.98C63.6681 32.8772 63.6898 32.767 63.6898 32.6558C63.6898 32.5445 63.6681 32.4343 63.626 32.3315C63.584 32.2287 63.5223 32.1353 63.4446 32.0566C63.3668 31.978 63.2745 31.9155 63.173 31.873C63.0714 31.8304 62.9626 31.8085 62.8526 31.8085ZM62.1798 39.4141H63.5364V34.3148H62.1798V39.4141ZM66.5628 32.811H65.3377V33.523C65.3486 33.6298 65.3362 33.7378 65.3014 33.8392C65.2665 33.9406 65.2102 34.0331 65.1362 34.1101C65.0622 34.1871 64.9725 34.2467 64.8732 34.2848C64.774 34.3228 64.6678 34.3384 64.562 34.3304H64.299V35.5481H65.2084V37.8925C65.2084 38.8751 65.8198 39.4651 66.7994 39.4651C67.0606 39.474 67.321 39.4318 67.5664 39.3409V38.203C67.4287 38.2318 67.2885 38.2459 67.1479 38.2452C66.76 38.2452 66.5562 38.101 66.5562 37.6552V35.5259H67.5664V34.3082H66.5562L66.5628 32.811ZM70.1042 37.1827H71.0947L71.4212 32.0813H69.7776L70.1042 37.1827ZM70.5928 37.8482C70.3791 37.8517 70.1755 37.9407 70.0264 38.0957C69.8774 38.2507 69.795 38.4592 69.7973 38.6755C69.7965 38.782 69.8164 38.8876 69.8559 38.9863C69.8955 39.085 69.9538 39.1749 70.0277 39.2507C70.1016 39.3265 70.1896 39.3868 70.2866 39.4282C70.3835 39.4695 70.4876 39.4911 70.5928 39.4917C70.6995 39.4926 70.8053 39.4722 70.9041 39.4316C71.003 39.391 71.093 39.3311 71.1689 39.2553C71.2448 39.1795 71.3052 39.0892 71.3466 38.9897C71.3881 38.8902 71.4097 38.7834 71.4103 38.6755C71.4114 38.5654 71.3909 38.4562 71.35 38.3543C71.3091 38.2523 71.2485 38.1596 71.1718 38.0816C71.0951 38.0035 71.0038 37.9417 70.9033 37.8998C70.8028 37.8578 70.695 37.8365 70.5863 37.8371L70.5928 37.8482Z" fill="#00BCFF"/>
</svg>
